REM DIRINDEX 1\2,1\3,1\4
REM DIRNAME cjc151,folder01,folder02,folder03
TITLE ""
FILE "053 053_TOEFL_3900.mp3" MP3
  TRACK 01 AUDIO
    TITLE "2:cjc151_2278"
    INDEX 01 00:00:00
  TRACK 02 AUDIO
    TITLE "0:"
    INDEX 01 00:01:11
  TRACK 03 AUDIO
    TITLE "3:cjc151_2279"
    INDEX 01 00:02:65
  TRACK 04 AUDIO
    TITLE "0:"
    INDEX 01 00:06:35
  TRACK 05 AUDIO
    TITLE "2:cjc151_2280"
    INDEX 01 00:08:11
  TRACK 06 AUDIO
    TITLE "0:"
    INDEX 01 00:09:18
  TRACK 07 AUDIO
    TITLE "3:cjc151_2281"
    INDEX 01 00:10:68
  TRACK 08 AUDIO
    TITLE "0:"
    INDEX 01 00:15:07
  TRACK 09 AUDIO
    TITLE "2:cjc151_2282"
    INDEX 01 00:16:59
  TRACK 10 AUDIO
    TITLE "0:"
    INDEX 01 00:17:74
  TRACK 11 AUDIO
    TITLE "3:cjc151_2283"
    INDEX 01 00:19:52
  TRACK 12 AUDIO
    TITLE "0:"
    INDEX 01 00:23:08
  TRACK 13 AUDIO
    TITLE "2:cjc151_2284"
    INDEX 01 00:25:03
  TRACK 14 AUDIO
    TITLE "0:"
    INDEX 01 00:26:15
  TRACK 15 AUDIO
    TITLE "3:cjc151_2285"
    INDEX 01 00:28:00
  TRACK 16 AUDIO
    TITLE "0:"
    INDEX 01 00:31:51
  TRACK 17 AUDIO
    TITLE "2:cjc151_2286"
    INDEX 01 00:33:30
  TRACK 18 AUDIO
    TITLE "0:"
    INDEX 01 00:34:36
  TRACK 19 AUDIO
    TITLE "3:cjc151_2287"
    INDEX 01 00:36:11
  TRACK 20 AUDIO
    TITLE "0:"
    INDEX 01 00:39:05
  TRACK 21 AUDIO
    TITLE "2:cjc151_2288"
    INDEX 01 00:41:00
  TRACK 22 AUDIO
    TITLE "0:"
    INDEX 01 00:42:06
  TRACK 23 AUDIO
    TITLE "3:cjc151_2289"
    INDEX 01 00:43:60
  TRACK 24 AUDIO
    TITLE "0:"
    INDEX 01 00:47:23
  TRACK 25 AUDIO
    TITLE "2:cjc151_2290"
    INDEX 01 00:49:02
  TRACK 26 AUDIO
    TITLE "0:"
    INDEX 01 00:50:07
  TRACK 27 AUDIO
    TITLE "3:cjc151_2291"
    INDEX 01 00:51:56
  TRACK 28 AUDIO
    TITLE "0:"
    INDEX 01 00:55:22
  TRACK 29 AUDIO
    TITLE "2:cjc151_2292"
    INDEX 01 00:56:74
  TRACK 30 AUDIO
    TITLE "0:"
    INDEX 01 00:58:05
  TRACK 31 AUDIO
    TITLE "3:cjc151_2293"
    INDEX 01 00:59:59
  TRACK 32 AUDIO
    TITLE "0:"
    INDEX 01 01:04:43
  TRACK 33 AUDIO
    TITLE "2:cjc151_2294"
    INDEX 01 01:06:20
  TRACK 34 AUDIO
    TITLE "0:"
    INDEX 01 01:07:33
  TRACK 35 AUDIO
    TITLE "3:cjc151_2295"
    INDEX 01 01:09:09
  TRACK 36 AUDIO
    TITLE "0:"
    INDEX 01 01:12:64
  TRACK 37 AUDIO
    TITLE "2:cjc151_2296"
    INDEX 01 01:14:43
  TRACK 38 AUDIO
    TITLE "0:"
    INDEX 01 01:15:42
  TRACK 39 AUDIO
    TITLE "3:cjc151_2297"
    INDEX 01 01:17:22
  TRACK 40 AUDIO
    TITLE "0:"
    INDEX 01 01:21:37
  TRACK 41 AUDIO
    TITLE "2:cjc151_2298"
    INDEX 01 01:23:16
  TRACK 42 AUDIO
    TITLE "0:"
    INDEX 01 01:25:08
  TRACK 43 AUDIO
    TITLE "3:cjc151_2299"
    INDEX 01 01:26:60
  TRACK 44 AUDIO
    TITLE "0:"
    INDEX 01 01:29:56
  TRACK 45 AUDIO
    TITLE "2:cjc151_2300"
    INDEX 01 01:31:32
  TRACK 46 AUDIO
    TITLE "0:"
    INDEX 01 01:32:55
  TRACK 47 AUDIO
    TITLE "3:cjc151_2301"
    INDEX 01 01:34:32
  TRACK 48 AUDIO
    TITLE "0:"
    INDEX 01 01:38:36
  TRACK 49 AUDIO
    TITLE "2:cjc151_2302"
    INDEX 01 01:40:15
  TRACK 50 AUDIO
    TITLE "0:"
    INDEX 01 01:41:10
  TRACK 51 AUDIO
    TITLE "3:cjc151_2303"
    INDEX 01 01:42:63
  TRACK 52 AUDIO
    TITLE "0:"
    INDEX 01 01:45:57
  TRACK 53 AUDIO
    TITLE "2:cjc151_2304"
    INDEX 01 01:47:37
  TRACK 54 AUDIO
    TITLE "0:"
    INDEX 01 01:48:46
  TRACK 55 AUDIO
    TITLE "3:cjc151_2305"
    INDEX 01 01:50:25
  TRACK 56 AUDIO
    TITLE "0:"
    INDEX 01 01:53:63
  TRACK 57 AUDIO
    TITLE "2:cjc151_2306"
    INDEX 01 01:55:48
  TRACK 58 AUDIO
    TITLE "0:"
    INDEX 01 01:56:47
  TRACK 59 AUDIO
    TITLE "3:cjc151_2307"
    INDEX 01 01:58:29
  TRACK 60 AUDIO
    TITLE "0:"
    INDEX 01 02:01:70
  TRACK 61 AUDIO
    TITLE "2:cjc151_2308"
    INDEX 01 02:03:47
  TRACK 62 AUDIO
    TITLE "0:"
    INDEX 01 02:04:64
  TRACK 63 AUDIO
    TITLE "3:cjc151_2309"
    INDEX 01 02:06:42
  TRACK 64 AUDIO
    TITLE "0:"
    INDEX 01 02:10:32
  TRACK 65 AUDIO
    TITLE "2:cjc151_2310"
    INDEX 01 02:12:09
  TRACK 66 AUDIO
    TITLE "0:"
    INDEX 01 02:13:20
  TRACK 67 AUDIO
    TITLE "3:cjc151_2311"
    INDEX 01 02:15:00
  TRACK 68 AUDIO
    TITLE "0:"
    INDEX 01 02:18:45
  TRACK 69 AUDIO
    TITLE "2:cjc151_2312"
    INDEX 01 02:20:22
  TRACK 70 AUDIO
    TITLE "0:"
    INDEX 01 02:21:22
  TRACK 71 AUDIO
    TITLE "3:cjc151_2313"
    INDEX 01 02:22:74
  TRACK 72 AUDIO
    TITLE "0:"
    INDEX 01 02:27:16
  TRACK 73 AUDIO
    TITLE "2:cjc151_2314"
    INDEX 01 02:28:69
  TRACK 74 AUDIO
    TITLE "0:"
    INDEX 01 02:30:15
  TRACK 75 AUDIO
    TITLE "3:cjc151_2315"
    INDEX 01 02:31:67
  TRACK 76 AUDIO
    TITLE "0:"
    INDEX 01 02:35:28
  TRACK 77 AUDIO
    TITLE "2:cjc151_2316"
    INDEX 01 02:37:07
  TRACK 78 AUDIO
    TITLE "0:"
    INDEX 01 02:38:06
  TRACK 79 AUDIO
    TITLE "3:cjc151_2317"
    INDEX 01 02:39:61
  TRACK 80 AUDIO
    TITLE "0:"
    INDEX 01 02:43:47
  TRACK 81 AUDIO
    TITLE "2:cjc151_2318"
    INDEX 01 02:45:26
  TRACK 82 AUDIO
    TITLE "0:"
    INDEX 01 02:46:18
  TRACK 83 AUDIO
    TITLE "3:cjc151_2319"
    INDEX 01 02:47:70
  TRACK 84 AUDIO
    TITLE "0:"
    INDEX 01 02:50:68
  TRACK 85 AUDIO
    TITLE "2:cjc151_2320"
    INDEX 01 02:52:48
  TRACK 86 AUDIO
    TITLE "0:"
    INDEX 01 02:53:49
  TRACK 87 AUDIO
    TITLE "3:cjc151_2321"
    INDEX 01 02:55:30
  TRACK 88 AUDIO
    TITLE "0:"
    INDEX 01 02:59:54
